<svg id="visual" viewBox="0 0 900 450" width="900" height="450" xmlns="http://www.w3.org/2000/svg" xmlns:xlink="http://www.w3.org/1999/xlink" version="1.1"><rect x="0" y="0" width="900" height="450" fill="#fff"></rect><defs><linearGradient id="grad1_0" x1="50%" y1="0%" x2="100%" y2="100%"><stop offset="10%" stop-color="#43bff7" stop-opacity="1"></stop><stop offset="90%" stop-color="#43bff7" stop-opacity="1"></stop></linearGradient></defs><defs><linearGradient id="grad1_1" x1="50%" y1="0%" x2="100%" y2="100%"><stop offset="10%" stop-color="#43bff7" stop-opacity="1"></stop><stop offset="90%" stop-color="#b2dffb" stop-opacity="1"></stop></linearGradient></defs><defs><linearGradient id="grad1_2" x1="50%" y1="0%" x2="100%" y2="100%"><stop offset="10%" stop-color="#ffffff" stop-opacity="1"></stop><stop offset="90%" stop-color="#b2dffb" stop-opacity="1"></stop></linearGradient></defs><defs><linearGradient id="grad2_0" x1="0%" y1="0%" x2="50%" y2="100%"><stop offset="10%" stop-color="#43bff7" stop-opacity="1"></stop><stop offset="90%" stop-color="#43bff7" stop-opacity="1"></stop></linearGradient></defs><defs><linearGradient id="grad2_1" x1="0%" y1="0%" x2="50%" y2="100%"><stop offset="10%" stop-color="#b2dffb" stop-opacity="1"></stop><stop offset="90%" stop-color="#43bff7" stop-opacity="1"></stop></linearGradient></defs><defs><linearGradient id="grad2_2" x1="0%" y1="0%" x2="50%" y2="100%"><stop offset="10%" stop-color="#b2dffb" stop-opacity="1"></stop><stop offset="90%" stop-color="#ffffff" stop-opacity="1"></stop></linearGradient></defs><g transform="translate(900, 0)"><path d="M0 225C-28.3 219.9 -56.7 214.8 -85 205.1C-113.2 195.4 -141.4 181 -159.1 159.1C-176.8 137.2 -183.9 107.8 -193.1 80C-202.3 52.2 -213.7 26.1 -225 0L0 0Z" fill="#daeffd"></path><path d="M0 150C-18.9 146.6 -37.8 143.2 -56.6 136.7C-75.5 130.2 -94.3 120.7 -106.1 106.1C-117.8 91.5 -122.6 71.8 -128.7 53.3C-134.9 34.8 -142.4 17.4 -150 0L0 0Z" fill="#84cff9"></path><path d="M0 75C-9.4 73.3 -18.9 71.6 -28.3 68.4C-37.7 65.1 -47.1 60.3 -53 53C-58.9 45.7 -61.3 35.9 -64.4 26.7C-67.4 17.4 -71.2 8.7 -75 0L0 0Z" fill="#43bff7"></path></g><g transform="translate(0, 450)"><path d="M0 -225C30.5 -222.9 61 -220.9 86.1 -207.9C111.2 -194.9 130.9 -171 148.5 -148.5C166.1 -126 181.6 -104.9 194 -80.4C206.4 -55.8 215.7 -27.9 225 0L0 0Z" fill="#daeffd"></path><path d="M0 -150C20.3 -148.6 40.7 -147.2 57.4 -138.6C74.1 -129.9 87.3 -114 99 -99C110.7 -84 121.1 -69.9 129.3 -53.6C137.6 -37.2 143.8 -18.6 150 0L0 0Z" fill="#84cff9"></path><path d="M0 -75C10.2 -74.3 20.3 -73.6 28.7 -69.3C37.1 -65 43.6 -57 49.5 -49.5C55.4 -42 60.5 -35 64.7 -26.8C68.8 -18.6 71.9 -9.3 75 0L0 0Z" fill="#43bff7"></path></g></svg>